<?xml version="1.0" encoding="UTF-8"?>
<svg id="Layer_1" xmlns="http://www.w3.org/2000/svg" version="1.1" viewBox="0 0 368.6 54.14">
  <!-- Generator: Adobe Illustrator 30.3.0, SVG Export Plug-In . SVG Version: 2.1.3 Build 182)  -->
  <defs>
    <style>
      .st0 {
        fill: #fff;
      }
    </style>
  </defs>
  <path class="st0" d="M41,7.8l-.3-.3c-2.72-2.76-6.43-4.31-10.3-4.3-3.87-.03-7.59,1.53-10.3,4.3-.69.72-1.32,1.49-1.9,2.3h0c0,.1-.1.1-.1.2.01.21.19.39.4.4h.2c1.73-.64,3.56-.98,5.4-1,4.06,0,7.97,1.58,10.9,4.4h0c.08.08.19.11.3.1h5.5c.21-.01.39-.19.4-.4v-5.4h0c-.1-.1-.1-.2-.2-.3Z"/>
  <path class="st0" d="M40.7,25.1h-5.6c-2.89.02-5.3-2.21-5.5-5.1h0c-.01-.21-.19-.39-.4-.4h0c-1.19.11-2.31.6-3.2,1.4h0c-.1,0-.1.1-.2.1h0l-.1.1v.1l-.1.1-.1.1-.1.1-.1.1-.1.1c0,.05-.04.1-.1.1,0,0,0,0,0,0l-.1.1c0,.05-.04.1-.1.1,0,0,0,0,0,0l-.1.1c-.07.07-.14.13-.2.2,0,.05-.04.1-.1.1,0,0,0,0,0,0,0,0,70.66,71.06-.2.2,0,.05-.04.1-.1.1,0,0,0,0,0,0v2h0v.1c.07,2.99,2.51,5.39,5.5,5.4h4c.21.01.39.19.4.4v1.5c.01.21.19.39.4.4h.1c2.35-.5,4.55-1.56,6.4-3.1h0c.1-.1.2-.2.2-.3h0v-3.6c-.1-.3-.3-.5-.5-.5Z"/>
  <path class="st0" d="M40.4,41.6h-.1c-13.12,5.05-27.85-1.49-32.9-14.61-1.12-2.9-1.69-5.98-1.7-9.09-.02-3.15.56-6.27,1.7-9.2h0v-.2c-.06-.17-.22-.29-.4-.3-.1,0-.3.1-.3.2h0C2.37,12.79-.04,18.73,0,24.9c0,13.31,10.79,24.09,24.1,24.1,6.18.03,12.13-2.33,16.6-6.6h0c.1-.1.2-.2.2-.3.02-.26-.18-.48-.44-.5-.02,0-.04,0-.06,0Z"/>
  <path class="st0" d="M91.6,29.8h13.3c2.74.18,5.11-1.89,5.29-4.63,0-.12.01-.25.01-.37v-.5c-.02-.27-.23-.48-.5-.5h-18.1c-.27.02-.48.23-.5.5v5.1c.09.21.28.36.5.4Z"/>
  <path class="st0" d="M110.9,4.7h-19.3c-.27.02-.48.23-.5.5v5.1c.02.27.23.48.5.5h14.4c2.74.18,5.11-1.89,5.29-4.63,0-.12.01-.25.01-.37v-.7c.1-.2-.1-.4-.4-.4Z"/>
  <path class="st0" d="M110.9,43h-22.8c-3.7,0-5.9-2.1-5.9-5.9V.8c-.02-.27-.23-.48-.5-.5h0c-4.2.1-6.6,2.7-6.6,6.9v34.9c0,4.3,2.6,6.9,6.9,6.9h24c3.2,0,5.4-2.1,5.4-5.1v-.5c-.03-.25-.25-.42-.5-.4Z"/>
  <path class="st0" d="M155.9,42.9h0c-2.12-.53-3.56-2.52-3.4-4.7V1c0-.16-.08-.3-.2-.4h-.1c-.45-.16-.92-.23-1.4-.2-3.3,0-5.5,2.3-5.5,5.8v37c0,3.5,2.2,5.8,5.5,5.8s5.4-2.2,5.4-5.6h0c0-.21-.11-.4-.3-.5Z"/>
  <path class="st0" d="M186.4,43h0c-.3,0-.7.1-.9.1-3.4.1-5.1-1.6-6.6-4.1l-16.7-27.9h0c-.1-.12-.24-.2-.4-.2-.27.02-.48.23-.5.5h0v15.5l10.6,17.5c1.4,2.4,3.3,4.6,7.5,4.6,3.9,0,6.5-1.9,7.4-5.4v-.2c-.01-.21-.19-.39-.4-.4Z"/>
  <path class="st0" d="M182.9,28.6c.27-.02.48-.23.5-.5h0V1c0-.2-.1-.4-.3-.4h0c-.43-.11-.86-.17-1.3-.2-3.3,0-5.5,2.3-5.5,5.8v11.7l6.3,10.4c0,.16.14.29.3.3Z"/>
  <path class="st0" d="M231.6,42.9h0c-2.2-.5-3.4-2.2-3.4-4.7V1c-.01-.21-.19-.39-.4-.4h0c-.41-.16-.86-.22-1.3-.2-3.3,0-5.5,2.3-5.5,5.8v37c0,3.5,2.2,5.8,5.5,5.8s5.4-2.2,5.4-5.6v-.1c.1-.2-.1-.3-.3-.4Z"/>
  <path class="st0" d="M300.7,41c-.1,0-.2,0-.2.1l-.2.1c-2.92,1.33-6.1,1.98-9.3,1.9-6,0-10.7-1.8-14-5.2-3.4-3.6-5.2-8.9-5.2-15.8V.7c-.01-.21-.19-.39-.4-.4h0c-.43-.11-.86-.17-1.3-.2-3.3,0-5.5,2.3-5.5,5.8v21.1c0,14,7.4,22.1,20.2,22.1,7,0,12.6-2.5,16-7.1l.1-.2h0c.08-.08.11-.19.1-.3.2-.3,0-.5-.3-.5Z"/>
  <path class="st0" d="M301,.2h0c-.43-.11-.86-.17-1.3-.2-3.3,0-5.5,2.3-5.5,5.8v21.4c.08,2.29-.33,4.58-1.2,6.7v.1h0v.2c.02.27.23.48.5.5h.2c5.1-1,7.7-5.2,7.7-12.4V.7h0c-.05-.22-.19-.41-.4-.5Z"/>
  <path class="st0" d="M348.4,28.9l5.1.9c5.5,1,6.1,3,6.1,4.5v.1h0c.02.27.23.48.5.5h.1c4.1-.5,6.6-2.6,6.6-5.5s-2.3-4.6-7-5.5l-5.1-.9c-11.9-2.2-14.4-8.6-14.4-13.6-.04-2.49.69-4.94,2.1-7l.2-.2h0c0-.1.1-.1.1-.2-.02-.27-.23-.48-.5-.5h-.2l-.2.1c-5.5,2.5-8.7,7.2-8.7,12.8.1,7.5,5.5,12.7,15.3,14.5Z"/>
  <path class="st0" d="M368,40.9h-.1l-.2.1c-3.19,1.37-6.63,2.05-10.1,2-5.85.03-11.54-1.86-16.2-5.4-1.21-.81-1.96-2.15-2-3.6h0c0-.2-.1-.4-.3-.4h0c-.49-.12-.99-.18-1.5-.2-1.64.02-3.17.84-4.1,2.2-.87,1.14-1.3,2.57-1.2,4,.22,1.55,1.09,2.93,2.4,3.8,4.82,3.69,10.73,5.66,16.8,5.6,7.6,0,13.8-2.6,16.9-7.2l.1-.2h0c.01-.08.05-.15.1-.2-.06-.28-.31-.49-.6-.5Z"/>
  <path class="st0" d="M349.3,8.8c.01.21.19.39.4.4h.8c3.31-.11,6.55.99,9.1,3.1,1.01.84,2.29,1.29,3.6,1.3h0c1.64-.02,3.17-.84,4.1-2.2.79-.99,1.22-2.23,1.2-3.5h0c0-.2-.1-.4-.3-.4h0c-.64-.22-1.24-.52-1.8-.9-2.74-2.22-6.18-3.39-9.7-3.3-4.4,0-7.5,2.1-7.4,5.1-.1.1,0,.3,0,.4h0Z"/>
</svg>